<?xml version="1.0" encoding="UTF-8" standalone="no"?>
<svg
   version="1.0"
   width="534.000000pt"
   height="449.000000pt"
   viewBox="0 0 534.000000 449.000000"
   preserveAspectRatio="xMidYMid meet"
   id="svg44"
   sodipodi:docname="logo (2).svg"
   inkscape:version="1.2.1 (9c6d41e, 2022-07-14)"
   xmlns:inkscape="http://www.inkscape.org/namespaces/inkscape"
   xmlns:sodipodi="http://sodipodi.sourceforge.net/DTD/sodipodi-0.dtd"
   xmlns="http://www.w3.org/2000/svg"
   xmlns:svg="http://www.w3.org/2000/svg">
  <defs
     id="defs48" />
  <sodipodi:namedview
     id="namedview46"
     pagecolor="#ffffff"
     bordercolor="#000000"
     borderopacity="0.25"
     inkscape:showpageshadow="2"
     inkscape:pageopacity="0.0"
     inkscape:pagecheckerboard="0"
     inkscape:deskcolor="#d1d1d1"
     inkscape:document-units="pt"
     showgrid="false"
     inkscape:zoom="0.39420935"
     inkscape:cx="356.4096"
     inkscape:cy="299.33333"
     inkscape:window-width="1309"
     inkscape:window-height="456"
     inkscape:window-x="0"
     inkscape:window-y="25"
     inkscape:window-maximized="0"
     inkscape:current-layer="svg44" />
  <g
     transform="translate(0.000000,449.000000) scale(0.100000,-0.100000)"
     fill="#000000"
     stroke="none"
     id="g42"
     style="fill:#ffffff">
    <path
       d="M2450 4474 c-596 -81 -1110 -451 -1375 -989 -331 -671 -207 -1486 307 -2021 l81 -84 -74 31 c-298 123 -681 129 -982 15 -147 -55 -384 -198 -401 -241 -11 -29 213 -180 419 -283 547 -272 1210 -299 1792 -73 56 22 124 51 152 65 49 25 54 26 138 16 103 -12 272 -12 358 0 57 7 64 6 155 -35 713 -320 1542 -250 2174 185 132 92 133 92 133 114 0 42 -259 196 -421 250 -156 52 -267 69 -441 69 -183 0 -298 -19 -462 -78 l-96 -34 80 82 c135 140 259 322 332 489 l33 75 82 18 c162 34 368 116 507 200 74 45 73 53 -20 148 -123 128 -314 252 -481 316 -157 60 -394 98 -537 87 -134 -11 -225 -40 -388 -120 -215 -107 -335 -138 -530 -138 -60 -1 -129 2 -152 6 -41 7 -43 6 -43 -16 1 -26 119 -131 255 -224 103 -71 293 -166 417 -208 l98 -32 -59 -70 c-138 -163 -332 -283 -549 -341 -87 -24 -115 -27 -267 -27 -153 0 -180 3 -270 27 -475 127 -805 554 -805 1042 0 597 478 1075 1075 1075 357 0 693 -177 888 -467 38 -57 47 -65 96 -79 40 -12 78 -15 138 -11 183 11 338 134 386 307 30 104 28 111 -43 212 -79 112 -246 288 -355 374 -381 297 -873 432 -1345 368z m586 -58 c236 -50 478 -155 674 -294 120 -85 316 -280 398 -397 61 -86 64 -92 60 -140 -10 -115 -100 -240 -216 -297 -54 -27 -79 -33 -152 -36 -123 -6 -151 5 -202 81 -57 86 -208 234 -298 292 -438 285 -1003 236 -1379 -120 -338 -320 -442 -813 -262 -1246 75 -180 243 -382 405 -488 200 -130 386 -186 621 -186 236 0 439 62 636 196 65 43 205 176 251 238 l26 34 88 -17 c49 -9 122 -21 162 -26 41 -4 76 -10 78 -13 8 -7 -186 -205 -260 -266 -533 -435 -1277 -520 -1891 -214 -282 140 -518 349 -690 608 -132 200 -150 271 -150 575 0 173 4 223 23 320 79 390 277 739 565 990 237 209 531 353 832 409 157 29 161 29 370 26 156 -3 212 -8 311 -29z m1194 -1685 c178 -40 314 -98 459 -196 106 -70 251 -199 251 -221 0 -11 -25 -14 -135 -14 -166 0 -285 16 -285 38 0 29 50 102 70 102 44 0 65 57 33 92 -35 39 -97 7 -92 -49 2 -16 -9 -52 -26 -86 -29 -58 -30 -58 -65 -52 -19 4 -75 22 -123 41 -166 65 -271 85 -474 91 -101 3 -183 9 -183 12 0 4 23 33 51 65 34 37 57 55 67 51 26 -10 62 22 62 55 0 28 -29 60 -55 60 -20 0 -55 -40 -55 -62 0 -11 -20 -46 -45 -76 -25 -30 -53 -68 -62 -83 -23 -39 -72 -49 -254 -56 -162 -6 -310 10 -397 42 -36 13 -36 14 46 14 158 2 400 69 532 149 70 43 147 73 240 93 107 24 311 19 440 -10z m-424 -62 c10 -17 -13 -36 -27 -22 -12 12 -4 33 11 33 5 0 12 -5 16 -11z m794 -174 c0 -8 -7 -15 -15 -15 -8 0 -15 7 -15 15 0 8 7 15 15 15 8 0 15 -7 15 -15z m-1565 -65 c50 -11 143 -23 207 -27 l118 -6 6 -36 c3 -20 6 -40 7 -46 1 -5 -7 -23 -17 -38 -24 -35 -10 -73 30 -83 22 -6 32 -2 51 20 29 34 29 38 -2 74 -13 16 -27 47 -31 69 l-6 41 53 6 c30 4 92 14 139 23 47 8 143 16 213 16 140 2 147 -1 147 -58 0 -16 10 -69 22 -117 16 -68 19 -93 10 -112 -27 -60 58 -106 94 -51 20 31 8 69 -25 80 -22 7 -33 37 -57 162 -8 41 -14 77 -14 79 0 20 190 -23 310 -71 159 -63 326 -95 498 -95 91 0 95 -1 74 -16 -74 -51 -332 -143 -496 -176 -149 -30 -490 -33 -631 -5 -252 50 -465 137 -656 266 -118 80 -185 135 -154 127 11 -3 61 -15 110 -26z m381 -171 c10 -17 -13 -36 -27 -22 -12 12 -4 33 11 33 5 0 12 -5 16 -11z m-2317 -218 c251 -358 662 -622 1112 -713 100 -20 142 -23 349 -23 205 1 248 4 339 23 408 89 753 289 1007 583 l74 86 137 7 c76 3 150 9 165 12 l28 6 -27 -58 c-85 -186 -202 -353 -358 -509 -237 -237 -544 -407 -856 -473 -327 -70 -667 -50 -966 57 -446 159 -796 472 -999 894 -54 112 -104 247 -81 215 6 -9 41 -57 76 -107z m2947 98 c3 -6 2 -15 -2 -19 -12 -12 -38 5 -30 19 9 14 23 14 32 0z m-2846 -707 c145 -38 265 -90 405 -177 225 -140 272 -166 376 -210 59 -25 150 -57 203 -72 114 -32 110 -36 -60 -58 -188 -25 -398 -18 -579 18 -55 11 -60 14 -66 43 -18 93 -92 146 -203 149 -39 1 -84 8 -101 14 -18 7 -47 10 -72 6 -27 -4 -51 -1 -65 6 -13 7 -54 14 -93 15 -38 1 -91 8 -117 15 -79 21 -166 -19 -204 -93 -15 -30 -17 -30 -72 -23 -133 15 -403 87 -468 123 -28 15 162 133 306 191 176 70 303 91 525 86 150 -3 184 -7 285 -33z m3455 13 c186 -28 355 -89 505 -183 50 -32 90 -61 91 -67 1 -24 -229 -99 -402 -131 -99 -19 -437 -30 -458 -15 -13 8 -13 19 1 83 17 76 16 88 -6 88 -15 0 -50 -153 -64 -277 -8 -65 -7 -73 9 -73 18 0 29 27 29 77 0 61 0 61 129 55 205 -8 425 24 633 93 124 41 114 29 -57 -73 -346 -206 -711 -306 -1120 -306 -274 0 -514 41 -751 130 -86 32 -187 78 -129 59 11 -4 97 -9 190 -12 238 -7 353 9 625 90 123 37 278 69 284 58 2 -3 -3 -37 -11 -75 -11 -55 -12 -71 -2 -77 22 -13 27 -2 44 94 22 127 25 252 5 252 -11 0 -16 -13 -18 -45 -5 -95 -11 -110 -40 -110 -40 0 -225 -44 -360 -85 -64 -19 -162 -42 -217 -50 -101 -15 -367 -20 -438 -8 -37 6 -34 7 70 39 196 59 343 130 538 260 127 84 200 119 340 163 187 59 386 75 580 46z m-3800 -307 c3 -3 -6 -29 -20 -59 -33 -71 -35 -169 -5 -199 58 -58 119 32 107 158 -3 31 -8 65 -12 75 -6 14 -1 17 30 17 20 0 45 -5 56 -11 19 -10 19 -12 4 -35 -26 -40 -46 -136 -37 -180 11 -52 48 -75 84 -52 44 29 60 147 33 236 -7 19 -4 22 23 22 17 0 42 -4 55 -9 l25 -10 -23 -45 c-45 -89 -42 -188 7 -215 23 -13 29 -13 51 2 43 28 58 141 31 235 -6 19 -3 22 25 22 75 0 144 -57 156 -130 8 -50 13 -52 161 -76 146 -25 439 -25 573 -1 52 10 96 16 98 14 2 -3 -45 -22 -104 -45 -562 -209 -1191 -179 -1728 83 -111 54 -361 207 -314 192 8 -3 52 -17 97 -31 96 -30 250 -62 343 -72 64 -6 67 -6 74 17 22 71 83 112 158 106 26 -2 50 -6 52 -9z m45 -117 c0 -67 -16 -121 -36 -121 -20 0 -27 60 -14 111 26 97 50 101 50 10z m170 -27 c0 -61 -17 -114 -36 -114 -31 0 -30 101 2 163 21 39 34 21 34 -49z m170 -20 c0 -61 -17 -114 -36 -114 -31 0 -30 101 2 163 21 39 34 21 34 -49z"
       id="path2"
       style="fill:#ffffff" />
    <path
       d="M93 370 c-69 -41 -95 -157 -51 -228 37 -60 123 -86 209 -62 l37 10 4 66 c3 50 9 70 23 80 17 12 12 14 -45 14 -61 0 -63 -1 -42 -16 18 -13 22 -25 22 -73 0 -65 -6 -71 -68 -71 -43 1 -62 13 -91 60 -27 45 -28 122 -2 170 38 73 139 76 182 6 l19 -31 0 49 c0 37 -3 46 -12 38 -8 -5 -22 -6 -33 -1 -39 15 -119 10 -152 -11z"
       id="path4"
       style="fill:#ffffff" />
    <path
       d="M368 374 c21 -14 22 -22 22 -145 0 -125 -1 -130 -22 -139 -17 -6 -7 -9 42 -9 49 0 59 3 43 9 -20 8 -23 16 -23 70 0 84 22 82 86 -10 48 -69 50 -70 94 -69 45 0 45 0 16 12 -16 7 -48 39 -71 72 l-43 59 32 21 c23 15 32 29 34 55 6 66 -39 89 -168 90 -61 0 -63 -1 -42 -16z m140 -20 c30 -21 30 -77 0 -98 -12 -9 -35 -16 -50 -16 -27 0 -28 1 -28 58 0 32 3 62 7 65 11 12 48 7 71 -9z"
       id="path6"
       style="fill:#ffffff" />
    <path
       d="M678 378 c21 -11 22 -16 22 -145 0 -129 -1 -134 -22 -143 -16 -6 15 -9 98 -9 l121 -1 11 36 11 37 -27 -26 c-32 -30 -99 -45 -131 -28 -18 10 -21 21 -21 71 l0 60 49 0 c40 0 53 -4 65 -22 15 -21 16 -20 15 32 0 47 -2 52 -11 33 -9 -20 -19 -23 -65 -23 l-53 0 0 60 0 60 60 0 c53 0 61 -3 76 -25 21 -32 28 -26 19 14 l-7 31 -116 -1 c-92 0 -112 -3 -94 -11z"
       id="path8"
       style="fill:#ffffff" />
    <path
       d="M958 380 c21 -9 22 -14 22 -149 0 -137 0 -140 -22 -144 -13 -2 32 -5 99 -6 l121 -1 11 32 c14 39 9 46 -12 15 -11 -18 -29 -27 -62 -31 -76 -12 -85 -5 -85 70 l0 64 43 0 c46 0 61 -7 70 -30 3 -8 5 10 6 40 0 43 -2 50 -9 33 -8 -20 -17 -23 -60 -23 l-50 0 0 60 0 60 60 0 c55 0 61 -2 74 -27 l15 -28 1 38 0 37 -122 -1 c-84 0 -116 -3 -100 -9z"
       id="path10"
       style="fill:#ffffff" />
    <path
       d="M1238 370 l32 -20 0 -125 c0 -121 -1 -126 -22 -135 -18 -7 -11 -9 32 -9 43 0 50 2 33 9 -22 9 -23 15 -23 115 0 59 4 104 9 101 5 -3 51 -58 102 -122 l94 -115 3 143 c2 131 4 144 23 161 21 17 20 17 -32 16 -46 0 -51 -2 -31 -11 21 -10 22 -17 22 -117 0 -58 -4 -101 -8 -95 -5 5 -48 57 -96 117 -86 105 -88 107 -129 107 l-42 0 33 -20z"
       id="path12"
       style="fill:#ffffff" />
    <path
       d="M1576 372 c19 -14 55 -90 131 -272 18 -41 16 -45 84 123 28 67 60 132 72 145 l20 22 -49 0 c-43 -1 -47 -2 -31 -14 9 -7 17 -18 17 -24 0 -12 -70 -184 -80 -195 -7 -8 -90 173 -90 195 0 6 8 17 18 24 15 12 8 13 -48 13 -63 1 -64 0 -44 -17z"
       id="path14"
       style="fill:#ffffff" />
    <path
       d="M1918 380 c21 -9 22 -14 22 -149 0 -137 0 -140 -22 -144 -13 -2 9 -5 47 -5 51 -1 64 2 48 8 -22 9 -23 14 -23 143 0 129 1 134 23 145 18 9 10 11 -48 11 -52 0 -64 -3 -47 -9z"
       id="path16"
       style="fill:#ffffff" />
    <path
       d="M2060 384 c34 -14 40 -37 40 -153 0 -118 -4 -134 -30 -144 -8 -3 14 -5 50 -6 49 0 59 3 43 9 -20 8 -23 16 -23 70 0 84 22 82 85 -10 48 -70 48 -70 94 -70 l46 1 -31 13 c-17 8 -49 39 -72 71 l-41 58 32 21 c43 29 49 81 13 115 -22 21 -37 24 -123 27 -54 2 -91 1 -83 -2z m158 -30 c15 -10 22 -25 22 -49 0 -39 -29 -65 -72 -65 -28 0 -28 1 -28 65 0 64 0 65 28 65 15 0 38 -7 50 -16z"
       id="path18"
       style="fill:#ffffff" />
    <path
       d="M2377 384 c-4 -4 -7 -21 -6 -38 0 -29 1 -30 11 -9 11 23 67 41 87 28 12 -7 15 -213 5 -252 -3 -12 -13 -24 -23 -26 -9 -3 13 -5 49 -5 48 -1 59 2 43 8 -22 9 -23 14 -23 145 l0 135 30 0 c21 0 39 -9 56 -27 l26 -28 -4 35 -3 35 -121 3 c-66 1 -123 -1 -127 -4z"
       id="path20"
       style="fill:#ffffff" />
    <path
       d="M2668 380 c21 -9 22 -14 22 -145 0 -131 -1 -136 -22 -145 -16 -6 16 -9 99 -9 l121 -1 11 32 c14 39 9 46 -12 15 -11 -18 -29 -27 -62 -31 -76 -12 -85 -5 -85 70 l0 64 43 0 c46 0 61 -7 70 -30 3 -8 5 10 6 40 0 43 -2 50 -9 33 -8 -20 -17 -23 -60 -23 l-50 0 0 60 0 60 53 0 c57 0 68 -5 86 -35 10 -18 11 -16 9 15 l-3 35 -120 2 c-81 1 -113 -1 -97 -7z"
       id="path22"
       style="fill:#ffffff" />
    <path
       d="M3035 380 c-11 -4 -32 -21 -47 -36 -53 -57 -62 -123 -25 -194 36 -70 119 -100 185 -66 33 17 80 66 64 66 -7 0 -12 -5 -12 -10 0 -15 -62 -50 -88 -50 -49 0 -90 30 -108 77 -32 82 7 191 73 208 42 10 91 -13 113 -53 l19 -37 1 53 c0 47 -12 70 -22 41 -3 -9 -9 -9 -25 0 -25 13 -98 14 -128 1z"
       id="path24"
       style="fill:#ffffff" />
    <path
       d="M3439 366 c-98 -67 -87 -238 17 -282 61 -26 112 -16 162 29 37 34 25 41 -13 8 -88 -77 -195 -3 -182 124 8 76 29 112 76 126 48 14 85 -1 118 -50 l23 -34 -1 34 c-1 44 -13 77 -23 61 -5 -8 -14 -8 -32 -2 -46 18 -107 12 -145 -14z"
       id="path26"
       style="fill:#ffffff" />
    <path
       d="M3749 367 c-124 -83 -67 -297 79 -297 112 0 188 138 133 240 -41 78 -141 105 -212 57z m143 -14 c37 -34 49 -137 23 -200 -20 -46 -41 -62 -87 -63 -28 0 -42 7 -62 30 -57 69 -41 222 27 250 29 12 76 4 99 -17z"
       id="path28"
       style="fill:#ffffff" />
    <path
       d="M4378 380 c21 -9 22 -14 22 -149 0 -137 0 -140 -22 -144 -13 -2 32 -5 99 -6 l121 -1 12 36 c7 19 9 38 6 41 -3 4 -6 1 -6 -5 0 -7 -9 -21 -20 -32 -16 -16 -33 -20 -80 -20 l-61 0 3 132 c3 130 3 133 28 145 22 11 17 13 -50 12 -55 0 -69 -3 -52 -9z"
       id="path30"
       style="fill:#ffffff" />
    <path
       d="M4657 384 c-4 -4 -7 -23 -6 -43 1 -36 1 -36 11 -9 7 20 19 29 43 34 19 3 38 3 44 -1 12 -7 15 -213 5 -252 -3 -12 -13 -24 -23 -26 -9 -3 13 -5 49 -5 48 -1 59 2 43 8 -22 9 -23 14 -23 145 l0 135 26 0 c34 0 63 -17 74 -43 8 -18 9 -14 7 18 l-2 40 -121 3 c-66 1 -123 -1 -127 -4z"
       id="path32"
       style="fill:#ffffff" />
    <path
       d="M4948 379 c21 -12 22 -17 22 -146 0 -129 -1 -134 -22 -143 -16 -6 7 -9 77 -9 123 -1 159 14 193 79 27 54 28 91 2 145 -30 61 -62 75 -187 81 -87 4 -104 2 -85 -7z m173 -25 c41 -21 73 -92 64 -143 -10 -61 -39 -99 -85 -111 -77 -21 -80 -16 -80 129 0 70 3 131 7 134 12 12 63 7 94 -9z"
       id="path34"
       style="fill:#ffffff" />
    <path
       d="M4033 104 c-3 -8 -1 -20 5 -26 16 -16 42 -2 42 22 0 24 -38 28 -47 4z"
       id="path36"
       style="fill:#ffffff" />
    <path
       d="M4144 106 c-8 -22 5 -39 27 -33 30 8 24 -28 -8 -53 l-28 -21 32 16 c54 26 57 95 4 103 -12 2 -24 -3 -27 -12z"
       id="path38"
       style="fill:#ffffff" />
    <path
       d="M5294 105 c-4 -9 -2 -21 4 -27 15 -15 44 -1 40 19 -4 23 -36 29 -44 8z"
       id="path40"
       style="fill:#ffffff" />
  </g>
</svg>
